PathFileType	3	(X/Y/Z)	/mnt/e/Research/Bio/Osim_support/Data/PSU100/10hz/Subject7/trcs/Take_2_10hz.trc
DataRate	CameraRate	NumFrames	NumMarkers	Units	OrigDataRate	OrigDataStartFrame	OrigNumFrames
50.0	50.0	7	39	mm	50.0	2110	16876	
Frame#	Time	LFHD			RFHD			LBHD			RBHD			C7			T10			CLAV			STRN			RBAK			LSHO			LUPA			LELB			LFRM			LWRA			LWRB			LFIN			RSHO			RUPA			RELB			RFRM			RWRA			RWRB			RFIN			LASI			RASI			LPSI			RPSI			LTHI			LKNE			LTIB			LANK			LHEE			LTOE			RTHI			RKNE			RTIB			RANK			RHEE			RTOE	
	X1	Y1	Z1	X2	Y2	Z2	X3	Y3	Z3	X4	Y4	Z4	X5	Y5	Z5	X6	Y6	Z6	X7	Y7	Z7	X8	Y8	Z8	X9	Y9	Z9	X10	Y10	Z10	X11	Y11	Z11	X12	Y12	Z12	X13	Y13	Z13	X14	Y14	Z14	X15	Y15	Z15	X16	Y16	Z16	X17	Y17	Z17	X18	Y18	Z18	X19	Y19	Z19	X20	Y20	Z20	X21	Y21	Z21	X22	Y22	Z22	X23	Y23	Z23	X24	Y24	Z24	X25	Y25	Z25	X26	Y26	Z26	X27	Y27	Z27	X28	Y28	Z28	X29	Y29	Z29	X30	Y30	Z30	X31	Y31	Z31	X32	Y32	Z32	X33	Y33	Z33	X34	Y34	Z34	X35	Y35	Z35	X36	Y36	Z36	X37	Y37	Z37	X38	Y38	Z38	X39	Y39	Z39
2111	42.20000	-434.21300	1544.49000	827.81700	-442.60900	1545.07000	724.72600	-249.60800	1520.15000	799.99100	-276.70500	1517.94000	698.41400	-273.65400	1364.25000	733.58500	-190.87800	1024.19000	716.09500	-391.81800	1275.79000	776.56900	-424.53600	1109.06000	800.52500	-234.34300	1227.25000	624.88900	-289.85100	1335.42000	926.51000	-377.05600	1234.31000	997.25500	-499.03300	1176.78000	1033.82000	-644.60800	1210.33000	986.44400	-729.38800	1328.04000	968.02100	-774.66600	1257.91000	949.70700	-817.53700	1329.20000	928.58100	-393.83200	1326.50000	629.98200	-537.51400	1256.42000	626.50000	-630.32000	1225.55000	666.45400	-715.89400	1218.27000	785.76100	-701.92000	1166.52000	947.12000	-763.51000	1227.45000	921.85000	-738.12100	1236.81000	987.93000	-306.95100	862.97200	916.60300	-421.18200	869.76200	671.39500	-173.47300	875.84400	850.36000	-258.56200	877.01800	613.15400	-349.26800	679.64000	1014.85000	-401.34600	516.12300	1062.90000	-411.22900	312.60500	1071.56000	-474.93100	124.15800	1069.53000	-463.38500	76.74550	969.59200	-642.20800	44.40350	1168.19000	-467.90600	661.51600	673.86300	-476.93500	442.83300	726.53200	-387.03700	241.70300	707.48700	-286.40700	77.18480	720.16600	-196.63200	38.37970	768.87400	-462.86500	42.41260	794.49900
2112	42.22000	-428.70300	1548.07000	826.75300	-438.92200	1548.65000	723.78900	-244.88200	1521.69000	795.94300	-273.63400	1519.71000	694.82300	-270.89300	1366.67000	730.54000	-189.48800	1026.54000	712.59500	-389.21700	1278.54000	774.11400	-422.20400	1112.80000	799.17500	-232.92600	1229.72000	621.66200	-286.33500	1338.86000	921.14700	-376.49000	1243.75000	993.07500	-501.19700	1193.49000	1028.09000	-649.91100	1227.32000	985.94300	-736.19600	1345.36000	967.86900	-781.37500	1274.91000	953.66100	-826.25700	1345.74000	932.80600	-392.09400	1329.48000	627.78400	-535.76700	1259.40000	625.83500	-628.19400	1228.32000	666.84400	-709.77300	1222.41000	788.59300	-692.76600	1172.38000	947.74900	-753.79300	1232.99000	925.09500	-727.87800	1242.74000	991.26800	-304.31000	866.03800	913.74000	-421.71800	872.59000	669.75600	-171.84000	877.79800	845.59500	-259.64100	879.01100	609.78200	-347.22400	681.17700	1009.24000	-396.21800	516.15100	1057.64000	-407.98600	312.11000	1068.56000	-474.30600	124.40700	1069.37000	-463.24300	77.05570	969.73400	-642.21900	44.40030	1168.27000	-467.90900	663.17300	671.25300	-475.19200	443.99700	722.90600	-385.98000	241.63800	705.75600	-286.31000	77.18820	719.62000	-196.65400	38.52350	768.80500	-462.87200	42.36650	794.48900
2113	42.24000	-421.97500	1551.23000	826.15500	-434.47900	1552.04000	723.38400	-239.06000	1523.51000	791.48400	-270.00800	1521.88000	690.91600	-267.21800	1369.03000	726.62800	-188.16000	1028.44000	707.58800	-385.43500	1281.48000	772.06900	-416.81500	1115.22000	798.26100	-232.07600	1231.63000	617.20300	-279.43200	1341.87000	914.64700	-371.47000	1252.47000	988.96700	-498.05200	1208.79000	1023.31000	-649.58800	1242.29000	986.76800	-737.34300	1360.71000	968.79600	-782.53600	1289.00000	959.01500	-829.25500	1359.93000	938.12900	-390.82500	1332.38000	625.83700	-534.51700	1262.94000	626.59800	-626.48200	1232.24000	669.20200	-705.65500	1227.40000	792.38200	-684.09500	1178.83000	951.62200	-745.76000	1238.76000	930.36400	-718.28900	1249.58000	996.11200	-300.60700	869.03100	910.48900	-422.47400	875.10500	668.84300	-167.32300	882.45700	841.59100	-261.50300	880.68800	605.90400	-346.04200	682.99100	1001.59000	-391.04700	516.41200	1051.06000	-404.24800	311.47800	1064.42000	-473.65100	124.86000	1068.99000	-463.31600	77.54310	969.63400	-642.23700	44.34930	1168.40000	-468.24400	664.47200	668.16800	-473.92700	444.90300	718.36800	-385.06400	241.96000	702.72700	-286.18900	76.96520	719.01400	-196.74100	38.67930	768.75400	-462.88900	42.30580	794.42700
2114	42.26000	-413.59300	1554.08000	826.42900	-429.07600	1555.17000	724.19100	-232.73800	1524.99000	785.91700	-265.92200	1524.31000	686.60800	-262.68100	1371.17000	722.07700	-186.78500	1029.92000	701.54200	-380.39200	1284.48000	770.51000	-410.27900	1117.76000	798.07600	-231.45800	1233.24000	611.84700	-270.05600	1344.25000	908.23100	-362.89800	1259.05000	984.61300	-490.75700	1220.35000	1018.14000	-644.60300	1253.72000	987.44700	-734.07100	1372.34000	971.42100	-778.67900	1299.85000	964.68600	-828.22400	1370.16000	945.78300	-389.32400	1335.25000	624.25100	-533.22700	1266.17000	629.16900	-624.27300	1235.78000	674.18600	-701.67000	1231.75000	798.35000	-674.84100	1185.48000	959.24100	-737.87600	1244.35000	938.31800	-708.62700	1256.10000	1001.83000	-295.71600	871.79900	907.05200	-423.37600	877.73800	668.90100	-162.57900	885.92700	835.82900	-264.25000	882.32200	601.66300	-343.90900	684.89500	994.53100	-385.62400	517.26000	1045.32000	-400.57800	311.71400	1060.99000	-473.14400	126.25500	1069.31000	-463.54500	79.74700	970.16300	-642.38000	44.06910	1168.72000	-469.18500	666.16600	665.82900	-472.62200	445.69700	714.21900	-383.89700	242.03400	700.43000	-286.05800	76.58710	718.44700	-196.76600	38.74350	768.70000	-462.79900	42.33380	794.29100
2115	42.28000	-404.17700	1556.96000	827.25100	-423.47600	1558.33000	725.73800	-225.69500	1527.05000	779.66400	-261.88600	1527.21000	681.94200	-257.69900	1373.43000	716.88800	-185.47800	1031.52000	694.40900	-374.30300	1287.81000	769.59900	-402.58300	1120.62000	798.61800	-231.31900	1235.11000	605.83200	-258.37400	1346.88000	901.84400	-351.04000	1265.15000	980.38100	-479.72900	1230.55000	1013.82000	-635.78000	1263.07000	989.81400	-727.44500	1380.93000	974.91100	-770.75100	1308.58000	972.47800	-824.32100	1376.06000	956.12800	-387.51900	1338.50000	623.56200	-532.04700	1269.45000	633.70000	-621.68200	1239.31000	681.64800	-696.52500	1236.01000	807.30500	-665.21000	1191.66000	969.67300	-728.44200	1250.61000	948.73200	-697.16000	1262.89000	1011.08000	-289.51900	874.74500	903.66300	-424.87600	881.12100	669.38800	-157.89800	887.78800	827.80200	-267.73400	884.36400	597.23200	-337.51800	686.93500	990.54400	-378.60700	518.99800	1041.73000	-396.90500	313.78000	1059.73000	-472.74200	129.64800	1071.32000	-463.76700	85.09040	972.21000	-642.66900	43.68530	1169.49000	-470.42700	668.87200	665.39500	-470.82900	446.96900	711.61800	-382.62400	242.26900	699.69400	-286.03700	76.30850	718.09400	-196.72700	38.61910	768.62300	-462.74100	42.38940	794.24000
2116	42.30000	-393.72000	1558.94000	828.65600	-417.82100	1560.59000	728.12900	-217.69500	1529.63000	772.66400	-258.18100	1529.89000	676.78700	-252.66600	1374.99000	711.10300	-184.15700	1032.33000	686.13500	-367.15500	1290.74000	769.17800	-393.62600	1122.80000	799.56100	-231.50500	1236.25000	599.08400	-244.56700	1348.75000	894.50700	-336.62600	1269.87000	974.96600	-465.99900	1238.83000	1008.11000	-623.88700	1269.92000	991.02000	-718.25100	1387.20000	981.24400	-759.91400	1313.67000	979.89800	-817.07900	1378.81000	971.19800	-386.26300	1341.11000	623.42700	-530.71700	1272.43000	639.88200	-618.73000	1242.07000	691.45500	-688.63800	1240.78000	819.64700	-651.75600	1199.24000	982.73800	-716.98400	1256.84000	961.57400	-683.07600	1270.42000	1022.24000	-281.97200	877.35900	900.31000	-426.71700	884.37300	670.69800	-153.45800	888.08700	818.50100	-272.27000	885.96100	592.67200	-330.31000	688.93000	986.69400	-371.56900	520.99200	1038.72000	-393.34000	316.38500	1058.93000	-472.30100	133.80000	1073.68000	-463.97800	91.17970	974.35700	-642.95500	43.56410	1170.58000	-471.97800	671.01900	666.32000	-469.35700	447.95500	710.48600	-381.64900	242.23400	699.62500	-286.05600	76.00460	717.93900	-196.63300	38.29910	768.55900	-462.66200	42.49330	794.19300
2117	42.32000	-382.66600	1560.31000	830.80000	-412.41700	1562.23000	731.69800	-209.99900	1532.36000	764.91200	-255.42900	1532.77000	671.39600	-248.05600	1376.22000	704.77200	-183.62400	1032.82000	676.56500	-359.23500	1293.34000	768.84900	-383.98400	1124.58000	800.28000	-232.50400	1237.34000	591.54200	-229.14500	1350.33000	886.10300	-319.45900	1273.32000	968.96200	-448.98800	1244.62000	1003.88000	-608.45000	1272.81000	993.68400	-706.15600	1388.59000	988.52600	-745.44900	1313.62000	988.58400	-805.29100	1375.45000	988.15700	-385.23300	1343.81000	623.58300	-529.28400	1275.00000	647.03000	-615.12700	1244.47000	702.25500	-678.46500	1245.13000	834.02800	-636.04700	1204.84000	995.28600	-703.40000	1261.71000	976.01800	-667.30300	1276.42000	1034.67000	-274.29500	879.57800	895.68100	-429.05200	887.76500	672.50800	-149.76500	887.48000	807.78300	-278.32300	887.45300	587.60300	-322.93200	691.02600	982.32500	-364.58700	523.39700	1035.43000	-389.97200	319.36500	1057.54000	-472.06600	138.38600	1075.82000	-464.61800	97.74580	976.53800	-643.20300	43.66880	1172.05000	-474.28000	673.10700	667.59100	-468.18200	448.81600	709.30600	-380.90300	242.26200	698.96000	-285.92000	75.64170	717.72100	-196.56000	37.98990	768.46200	-462.61500	42.63010	794.24300
